<svg width="20" height="20" viewBox="0 0 20 20" fill="none" xmlns="http://www.w3.org/2000/svg">
<path fill-rule="evenodd" clip-rule="evenodd" d="M14.243 5.75709C13.4419 4.95651 12.4307 4.399 11.3261 4.149C10.2215 3.89901 9.06873 3.96673 8.00102 4.34435C6.93331 4.72198 5.99427 5.39407 5.29248 6.28294C4.59068 7.17181 4.15479 8.24115 4.03518 9.36733C3.91557 10.4935 4.11714 11.6306 4.61659 12.647C5.11603 13.6634 5.89295 14.5178 6.85753 15.1112C7.8221 15.7047 8.93495 16.013 10.0674 16.0006C11.1999 15.9882 12.3057 15.6555 13.257 15.0411C13.3671 14.9656 13.4913 14.9129 13.6221 14.8861C13.7529 14.8594 13.8878 14.8591 14.0187 14.8853C14.1496 14.9115 14.274 14.9636 14.3844 15.0387C14.4949 15.1137 14.5892 15.2101 14.6618 15.3222C14.7344 15.4342 14.7838 15.5597 14.8071 15.6912C14.8304 15.8226 14.8272 15.9575 14.7976 16.0877C14.768 16.2179 14.7126 16.3408 14.6347 16.4493C14.5568 16.5577 14.4579 16.6495 14.344 16.7191C12.8507 17.6847 11.0783 18.1252 9.30666 17.9711C7.53506 17.817 5.86532 17.077 4.5612 15.868C3.25709 14.6591 2.39296 13.05 2.10534 11.2952C1.81771 9.5403 2.12298 7.73961 2.97292 6.17759C3.82286 4.61557 5.16902 3.38126 6.79873 2.66966C8.42843 1.95806 10.2488 1.80974 11.9722 2.24813C13.6956 2.68652 15.2238 3.68663 16.3154 5.09045C17.407 6.49428 17.9997 8.2218 18 10.0001C18.0002 10.5573 17.8452 11.1036 17.5523 11.5776C17.2595 12.0517 16.8404 12.4349 16.3421 12.6841C15.8437 12.9334 15.2858 13.039 14.7308 12.989C14.1759 12.939 13.6458 12.7354 13.2 12.4011C12.6301 13.1609 11.8085 13.6931 10.8822 13.9026C9.95578 14.1121 8.9851 13.9851 8.1438 13.5443C7.30249 13.1036 6.64546 12.3779 6.29026 11.497C5.93507 10.6162 5.90488 9.63771 6.20511 8.73665C6.50534 7.83559 7.11639 7.07076 7.92892 6.57901C8.74146 6.08725 9.70247 5.90066 10.64 6.05262C11.5775 6.20458 12.4304 6.68517 13.046 7.40841C13.6616 8.13164 13.9998 9.05033 14 10.0001C14 10.2653 14.1054 10.5197 14.2929 10.7072C14.4804 10.8947 14.7348 11.0001 15 11.0001C15.2652 11.0001 15.5196 10.8947 15.7071 10.7072C15.8946 10.5197 16 10.2653 16 10.0001C16 8.46309 15.414 6.93009 14.243 5.75709ZM12 10.0001C12 9.46965 11.7893 8.96095 11.4142 8.58587C11.0391 8.2108 10.5304 8.00009 10 8.00009C9.46957 8.00009 8.96086 8.2108 8.58579 8.58587C8.21071 8.96095 8 9.46965 8 10.0001C8 10.5305 8.21071 11.0392 8.58579 11.4143C8.96086 11.7894 9.46957 12.0001 10 12.0001C10.5304 12.0001 11.0391 11.7894 11.4142 11.4143C11.7893 11.0392 12 10.5305 12 10.0001Z" fill="#6612C5"/>
</svg>
