<svg width="20" height="20" viewBox="0 0 20 20" fill="none" xmlns="http://www.w3.org/2000/svg">
<path d="M9.49894 2C4.80588 2 1 5.67245 1 10.2028C1 13.8262 3.43525 16.9002 6.814 17.9858C7.239 18.0613 7.39413 17.8081 7.39413 17.5905C7.39413 17.3955 7.38669 16.8797 7.38244 16.1955C5.01838 16.6908 4.519 15.0956 4.519 15.0956C4.13331 14.1479 3.5755 13.8956 3.5755 13.8956C2.80306 13.387 3.63287 13.3973 3.63287 13.3973C4.48606 13.4555 4.93444 14.2429 4.93444 14.2429C5.69306 15.4959 6.9245 15.1344 7.409 14.924C7.4855 14.394 7.70544 14.0325 7.94875 13.8272C6.06175 13.6199 4.077 12.9162 4.077 9.77383C4.077 8.87818 4.4085 8.14594 4.9525 7.57199C4.86431 7.36468 4.57319 6.53031 5.03538 5.40181C5.03538 5.40181 5.74938 5.18122 7.37288 6.24231C8.05075 6.06053 8.7775 5.96964 9.50106 5.96657C10.2225 5.97066 10.9503 6.06053 11.6292 6.24333C13.2517 5.18224 13.9646 5.40284 13.9646 5.40284C14.4279 6.53235 14.1367 7.3657 14.0496 7.57301C14.5947 8.14696 14.923 8.8792 14.923 9.77485C14.923 12.9254 12.9361 13.6189 11.0427 13.8221C11.3477 14.0754 11.6197 14.5758 11.6197 15.3407C11.6197 16.4375 11.6091 17.322 11.6091 17.5905C11.6091 17.8101 11.7621 18.0654 12.1934 17.9848C15.5669 16.8981 18 13.8252 18 10.2028C18 5.67245 14.1941 2 9.49894 2Z" fill="#6612C5"/>
</svg>
