<svg width="20" height="20" viewBox="0 0 20 20" fill="none" xmlns="http://www.w3.org/2000/svg">
<path d="M6.25884 7.49843H3.44832C3.32358 7.49843 3.22251 7.59977 3.22251 7.72473V16.7736C3.22251 16.8987 3.32358 17 3.44832 17H6.25884C6.38357 17 6.48465 16.8987 6.48465 16.7736V7.72473C6.48465 7.59977 6.38357 7.49843 6.25884 7.49843Z" fill="#6612C5"/>
<path d="M4.85459 3C3.83196 3 3 3.83289 3 4.85665C3 5.88085 3.83196 6.71406 4.85459 6.71406C5.87641 6.71406 6.7077 5.88081 6.7077 4.85665C6.70774 3.83289 5.87641 3 4.85459 3Z" fill="#6612C5"/>
<path d="M13.4076 7.27353C12.2788 7.27353 11.4443 7.75986 10.9382 8.31245V7.72473C10.9382 7.59977 10.8372 7.49843 10.7124 7.49843H8.02085C7.89612 7.49843 7.79505 7.59977 7.79505 7.72473V16.7736C7.79505 16.8987 7.89612 17 8.02085 17H10.8252C10.95 17 11.051 16.8987 11.051 16.7736V12.2965C11.051 10.7879 11.4599 10.2001 12.5093 10.2001C13.6521 10.2001 13.743 11.1423 13.743 12.3742V16.7737C13.743 16.8987 13.844 17 13.9688 17H16.7742C16.8989 17 17 16.8987 17 16.7737V11.8102C17 9.56685 16.5732 7.27353 13.4076 7.27353Z" fill="#6612C5"/>
</svg>
