<svg width="20" height="20" viewBox="0 0 20 20" fill="none" xmlns="http://www.w3.org/2000/svg">
<path d="M5.83301 12.1293L13.5865 13.7763L13.9113 12.2095L6.15776 10.5505L5.83301 12.1293Z" fill="#6612C5"/>
<path d="M5.66125 14.1782H13.5857V15.7735H5.66125V14.1782Z" fill="#6612C5"/>
<path d="M6.85 8.37325L14.029 11.7677L14.6942 10.3097L7.5115 6.90625L6.85 8.37325Z" fill="#6612C5"/>
<path d="M14.0304 11.7687L14.0293 11.7676L14.0282 11.7687H14.0304Z" fill="#6612C5"/>
<path d="M2.5 12.5718V19H16.744V12.5718H15.1592V17.3928H4.08475V12.5718H2.5Z" fill="#6612C5"/>
<path d="M8.83975 4.79731L14.9215 9.95206L15.931 8.71456L9.84925 3.55981L8.83975 4.79731Z" fill="#6612C5"/>
<path d="M17.5 7.44025L12.7735 1L11.5052 1.9645L16.2317 8.40475L17.5 7.44025Z" fill="#6612C5"/>
</svg>
